:FULLY-SPECIFIED
:FORCE-ALL-JOINTS-BE-3DOF
:DEGREES
146
root 8.62181 15.9554 -16.3569 6.47575 8.40874 3.55904
lfemur 26.3668 5.42889 -18.2055
ltibia 2.40676 0 0
lfoot 5.81768 -1.39378 0
ltoes -15.739 0 0
rfemur -41.378 2.08058 15.7177
rtibia 39.4228 0 0
rfoot -6.33493 -3.69788 0
rtoes -15.9865 0 0
lowerback -6.75974 -3.29167 -4.32075
upperback -1.19164 -4.1391 2.25611
thorax 3.02411 -2.11875 4.3687
lowerneck -19.3407 -5.9071 -13.8915
upperneck 17.3831 -6.96184 12.9294
head 9.65596 -2.81227 5.86128
lclavicle -2.19451e-15 1.57297e-14 0
lhumerus -35.2984 -1.56738 91.1316
lradius 18.7529 0 0
lwrist -10.9966 0 0
lhand -12.9798 -23.6627 0
lfingers 7.12502 0 0
lthumb 13.1108 5.8783 0
rclavicle -2.19451e-15 1.57297e-14 0
rhumerus -48.2222 4.22813 -81.812
rradius 28.9715 0 0
rwrist -15.5792 0 0
rhand -30.3626 -22.3026 0
rfingers 7.12502 0 0
rthumb -3.66762 -52.2508 0
147
root 8.59477 15.9931 -16.2025 6.53062 8.57993 3.17221
lfemur 24.816 5.75118 -17.4537
ltibia 5.75623 0 0
lfoot 6.4674 -1.16625 0
ltoes -14.6538 0 0
rfemur -40.8542 1.91214 16.4194
rtibia 39.5147 0 0
rfoot -6.75079 -3.31754 0
rtoes -15.5814 0 0
lowerback -6.64135 -3.30978 -3.93061
upperback -1.23135 -4.19724 2.34924
thorax 2.90108 -2.14137 4.24889
lowerneck -19.4776 -5.90635 -13.8033
upperneck 17.2979 -6.97114 12.9708
head 9.65063 -2.80128 5.85698
lclavicle 3.35909e-15 1.38118e-14 0
lhumerus -35.6883 0.0549063 90.1707
lradius 18.0848 0 0
lwrist -11.9158 0 0
lhand -11.1991 -22.7851 0
lfingers 7.12502 0 0
lthumb 14.8241 6.60111 0
rclavicle 3.35909e-15 1.38118e-14 0
rhumerus -48.0033 4.10059 -81.6003
rradius 28.7762 0 0
rwrist -14.8992 0 0
rhand -29.9561 -22.0986 0
rfingers 7.12502 0 0
rthumb -3.275 -52.0518 0
148
root 8.56772 16.0307 -16.048 6.60003 8.79834 2.75026
lfemur 22.8935 6.05961 -16.6746
ltibia 9.71364 0 0
lfoot 6.88513 -0.934148 0
ltoes -13.3508 0 0
rfemur -40.2578 1.74029 17.1364
rtibia 39.472 0 0
rfoot -7.25213 -2.9883 0
rtoes -15.2716 0 0
lowerback -6.52837 -3.34087 -3.49873
upperback -1.27637 -4.27472 2.4502
thorax 2.77534 -2.17329 4.11141
lowerneck -19.6614 -5.91099 -13.6964
upperneck 17.2519 -6.98913 13.0047
head 9.66821 -2.79235 5.84632
lclavicle 1.10931e-14 1.12313e-14 0
lhumerus -36.1154 1.53771 89.2337
lradius 17.5252 0 0
lwrist -12.6382 0 0
lhand -8.9064 -21.605 0
lfingers 7.12502 0 0
lthumb 17.0303 7.58413 0
rclavicle 1.10931e-14 1.12313e-14 0
rhumerus -47.7583 3.97469 -81.3835
rradius 28.5983 0 0
rwrist -14.1854 0 0
rhand -29.3763 -22.1099 0
rfingers 7.12502 0 0
rthumb -2.71512 -52.0696 0
149
root 8.54067 16.0684 -15.8936 6.6799 9.03147 2.31919
lfemur 20.768 6.35012 -15.9171
ltibia 13.9442 0 0
lfoot 7.15093 -0.635395 0
ltoes -12.1322 0 0
rfemur -39.6134 1.58148 17.8449
rtibia 39.3191 0 0
rfoot -7.7871 -2.6959 0
rtoes -15.0077 0 0
lowerback -6.41728 -3.36946 -3.06022
upperback -1.32448 -4.34836 2.5558
thorax 2.64734 -2.20338 3.97504
lowerneck -19.854 -5.92637 -13.5982
upperneck 17.2186 -7.02042 13.0436
head 9.69477 -2.78946 5.83718
lclavicle 1.89931e-14 8.27533e-15 0
lhumerus -36.5644 2.74634 88.4256
lradius 17.093 0 0
lwrist -13.13 0 0
lhand -6.50852 -20.3522 0
lfingers 7.12502 0 0
lthumb 19.3378 8.63174 0
rclavicle 1.89931e-14 8.27533e-15 0
rhumerus -47.5081 3.88294 -81.1851
rradius 28.468 0 0
rwrist -13.5562 0 0
rhand -28.7655 -22.2727 0
rfingers 7.12502 0 0
rthumb -2.12523 -52.2393 0
